<?xml version="1.0" standalone="no"?>
<!DOCTYPE svg PUBLIC "-//W3C//DTD SVG 20010904//EN"
 "http://www.w3.org/TR/2001/REC-SVG-20010904/DTD/svg10.dtd">
<svg version="1.0" xmlns="http://www.w3.org/2000/svg"
 width="1621.914994pt" height="1607.741785pt" viewBox="0 0 1621.914994 1607.741785"
 preserveAspectRatio="xMidYMid meet">
<metadata>
Created by Potrace Professional 1.1m
</metadata>
<g transform="translate(-41.065534,1642.490269) rotate(-360.00) scale(0.095238,-0.095238)"
fill="#e6b84a" stroke="none">
<path d="M10605 17245 c-266 -5 -725 -25 -955 -41 -1618 -115 -3015 -497
-4106 -1123 -180 -103 -497 -314 -642 -428 -141 -110 -346 -292 -387 -344 -42
-53 -63 -116 -63 -186 0 -32 345 -2123 767 -4647 421 -2523 766 -4594 766
-4601 0 -9 -28 -5 -98 16 -715 213 -1602 180 -2435 -91 -1611 -522 -2832
-1765 -3006 -3059 -20 -148 -20 -416 1 -556 144 -990 976 -1672 2199 -1803
218 -23 601 -23 824 1 919 97 1849 470 2573 1032 257 200 559 494 748 730 277
345 500 759 606 1127 70 240 103 488 99 734 -3 156 -7 181 -658 3832 l-655
3675 61 56 c289 261 887 579 1504 799 1048 374 2309 574 3960 631 1173 40
2275 -47 2997 -236 168 -44 321 -95 337 -113 12 -14 852 -6577 842 -6587 -3
-3 -47 6 -99 21 -288 82 -567 116 -954 115 -398 0 -686 -35 -1076 -131 -1400
-344 -2633 -1297 -3129 -2419 -220 -498 -283 -992 -182 -1443 209 -941 1058
-1559 2277 -1661 206 -17 604 -7 824 22 551 71 1056 223 1570 472 262 127 392
201 619 352 301 201 505 370 757 627 550 561 881 1195 960 1840 6 51 11 188
10 304 l-1 211 -708 5733 c-389 3153 -713 5756 -720 5783 -18 78 -63 135 -174
218 -307 227 -752 449 -1245 618 -824 284 -1838 456 -2963 505 -277 12 -806
19 -1045 15z"/>
</g>
</svg>
